<?xml version="1.0" ?><!DOCTYPE svg  PUBLIC '-//W3C//DTD SVG 1.1//EN'  'http://www.w3.org/Graphics/SVG/1.1/DTD/svg11.dtd'><svg id="Capa_1" style="enable-background:new 0 0 90 90;" version="1.1" viewBox="0 0 90 90" xml:space="preserve" xmlns="http://www.w3.org/2000/svg" xmlns:xlink="http://www.w3.org/1999/xlink"><g><g><path d="M67.3,67.5H45.1c-3.1,0-5.7-1.1-7.9-3.3c-2.2-2.2-3.2-4.8-3.2-7.9v-7.9h31.6c2.9,0,5.3-1,7.4-3.1     c2-2.1,3.1-4.5,3.1-7.4c0-2.9-1-5.3-3.1-7.4c-2-2-4.5-3.1-7.4-3.1H33.9V11.3c0-3.1-1.1-5.7-3.3-7.9C28.5,1.1,25.8,0,22.8,0     c-3.1,0-5.8,1.1-8,3.3c-2.2,2.2-3.3,4.8-3.3,8v45.1c0,9.3,3.3,17.2,9.8,23.8c6.6,6.6,14.5,9.9,23.7,9.9h22.2     c3.1,0,5.7-1.1,7.9-3.3c2.2-2.2,3.3-4.8,3.3-7.9c0-3.1-1.1-5.7-3.3-7.9C73,68.6,70.3,67.5,67.3,67.5z" id="Twitter"/></g></g></svg>