<?xml version="1.0" encoding="utf-8"?>
<!DOCTYPE svg PUBLIC "-//W3C//DTD SVG 1.1//EN" "http://www.w3.org/Graphics/SVG/1.1/DTD/svg11.dtd">
<svg version="1.1" xmlns="http://www.w3.org/2000/svg" xmlns:xlink="http://www.w3.org/1999/xlink" x="0px" y="0px" viewBox="0 0 1000 1000" enable-background="new 0 0 1000 1000" xml:space="preserve">
<g><g><path d="M816.6,10c0,0-227.6,0-303.5,0C377.1,10,249,113.1,249,232.5c0,122,92.7,220.5,231.2,220.5c9.6,0,19-0.2,28.1-0.9c-9,17.2-15.4,36.6-15.4,56.7c0,33.9,18.2,61.4,41.3,83.8c-17.4,0-34.3,0.5-52.6,0.5c-168.5,0-298.2,107.3-298.2,218.6c0,109.6,142.2,178.2,310.7,178.2c192.1,0,298.3-109,298.3-218.6c0-87.9-25.9-140.5-106.1-197.2c-27.4-19.4-79.9-66.6-79.9-94.4c0-32.5,9.3-48.6,58.3-86.8c50.2-39.2,85.7-94.4,85.7-158.5c0-76.4-34-150.8-97.8-175.3h96.2L816.6,10z M710.6,752.4c2.4,10.2,3.7,20.6,3.7,31.3c0,88.6-57.1,157.8-220.9,157.8c-116.5,0-200.6-73.7-200.6-162.3c0-86.8,104.4-159.1,220.8-157.8c27.2,0.3,52.5,4.7,75.5,12.1C652.5,677.5,697.8,702.3,710.6,752.4z M524.1,422.1c-78.2-2.3-152.5-87.5-166-190.1C344.6,129.2,397,50.6,475.2,53c78.2,2.3,152.5,84.7,166,187.4C654.7,343.1,602.3,424.4,524.1,422.1z"/></g><g></g><g></g><g></g><g></g><g></g><g></g><g></g><g></g><g></g><g></g><g></g><g></g><g></g><g></g><g></g></g>
</svg>